HIERARCHY
ROOT SpineBase
{
  OFFSET 0.000000 0.000000 0.000000
  CHANNELS 6 Xposition Yposition Zposition Zrotation Xrotation Yrotation
  JOINT SpineMid
  {
    OFFSET 0.000000 31.361342 0.000000
    CHANNELS 3 Zrotation Xrotation Yrotation
    JOINT SpineShoulder
    {
      OFFSET 0.030352 23.250589 -0.697417
      CHANNELS 3 Zrotation Xrotation Yrotation
      JOINT Neck
      {
        OFFSET 0.047314 7.680960 -0.547115
        CHANNELS 3 Zrotation Xrotation Yrotation
        JOINT Head
        {
          OFFSET 5.339462 12.577741 2.242505
          CHANNELS 3 Zrotation Xrotation Yrotation
          End Site
          {
            OFFSET 0 0 0
          }
        }
      }
      JOINT ShoulderLeft
      {
        OFFSET -10.255922 -3.764544 -12.091096
        CHANNELS 3 Zrotation Xrotation Yrotation
        JOINT ElbowLeft
        {
          OFFSET -6.625796 -26.981875 -7.672132
          CHANNELS 3 Zrotation Xrotation Yrotation
          JOINT WristLeft
          {
            OFFSET 3.001554 -23.406687 -4.526902
            CHANNELS 3 Zrotation Xrotation Yrotation
            JOINT HandLeft
            {
              OFFSET 1.083823 -8.132824 0.854375
              CHANNELS 3 Zrotation Xrotation Yrotation
              JOINT HandTipLeft
              {
                OFFSET 1.100110 -7.115782 0.390689
                CHANNELS 3 Zrotation Xrotation Yrotation
                End Site
                {
                  OFFSET 0 0 0
                }
              }
              JOINT ThumbLeft
              {
                OFFSET 3.379930 0.102045 2.216487
                CHANNELS 3 Zrotation Xrotation Yrotation
                End Site
                {
                  OFFSET 0 0 0
                }
              }
            }
          }
        }
      }
      JOINT ShoulderRight
      {
        OFFSET 11.366086 -4.580197 10.592736
        CHANNELS 3 Zrotation Xrotation Yrotation
        JOINT ElbowRight
        {
          OFFSET 1.743364 -30.401516 8.531184
          CHANNELS 3 Zrotation Xrotation Yrotation
          JOINT WristRight
          {
            OFFSET 1.362627 -23.719224 0.253517
            CHANNELS 3 Zrotation Xrotation Yrotation
            JOINT HandRight
            {
              OFFSET -2.351608 -1.278627 -0.005167
              CHANNELS 3 Zrotation Xrotation Yrotation
              JOINT HandTipRight
              {
                OFFSET 1.110333 -8.298551 0.518567
                CHANNELS 3 Zrotation Xrotation Yrotation
                End Site
                {
                  OFFSET 0 0 0
                }
              }
              JOINT ThumbRight
              {
                OFFSET -2.004464 0.707402 -2.281588
                CHANNELS 3 Zrotation Xrotation Yrotation
                End Site
                {
                  OFFSET 0 0 0
                }
              }
            }
          }
        }
      }
    }
  }
  JOINT HipLeft
  {
    OFFSET -4.532889 1.693002 -8.285628
    CHANNELS 3 Zrotation Xrotation Yrotation
    JOINT KneeLeft
    {
      OFFSET -11.324403 -33.887581 -2.910522
      CHANNELS 3 Zrotation Xrotation Yrotation
      JOINT AnkleLeft
      {
        OFFSET -6.523192 -39.878979 10.088528
        CHANNELS 3 Zrotation Xrotation Yrotation
        JOINT FootLeft
        {
          OFFSET 3.958596 -7.026081 -6.053173
          CHANNELS 3 Zrotation Xrotation Yrotation
          End Site
          {
            OFFSET 0 0 0
          }
        }
      }
    }
  }
  JOINT HipRight
  {
    OFFSET 5.471416 0.006645 1.461569
    CHANNELS 3 Zrotation Xrotation Yrotation
    JOINT KneeRight
    {
      OFFSET -2.678876 -36.255640 3.766707
      CHANNELS 3 Zrotation Xrotation Yrotation
      JOINT AnkleRight
      {
        OFFSET -5.291812 -38.957138 16.396186
        CHANNELS 3 Zrotation Xrotation Yrotation
        JOINT FootRight
        {
          OFFSET 7.689017 -3.917127 -11.014569
          CHANNELS 3 Zrotation Xrotation Yrotation
          End Site
          {
            OFFSET 0 0 0
          }
        }
      }
    }
  }
}
MOTION
Frames: 13
Frame Time: 0.033333
-50.515445 84.021954 333.967217 -0.000000 0.000000 -44.254216 -0.000000 0.000000 44.254216 -0.000000 0.000000 0.000000 -0.000000 0.000000 0.000000 0.000000 0.000000 0.000000 -0.000000 0.000000 0.000000 -0.000000 0.000000 0.000000 -0.000000 0.000000 0.000000 -0.000000 0.000000 0.000000 0.000000 0.000000 0.000000 0.000000 0.000000 0.000000 -0.000000 0.000000 0.000000 -0.000000 0.000000 0.000000 -0.000000 0.000000 0.000000 -0.000000 0.000000 0.000000 0.000000 0.000000 0.000000 0.000000 0.000000 0.000000 -0.000000 0.000000 44.254216 -0.000000 0.000000 0.000000 -0.000000 0.000000 0.000000 0.000000 0.000000 0.000000 -0.000000 0.000000 44.254216 -0.000000 0.000000 0.000000 -0.000000 0.000000 0.000000 0.000000 0.000000 0.000000
-50.520121 84.027463 334.017980 0.011299 0.054345 -43.943752 0.029578 -0.046970 43.943759 -0.000000 0.000000 0.000000 -0.000000 0.000000 0.000000 0.000000 0.000000 0.000000 -0.000000 0.000000 0.000000 -0.772750 -0.321141 0.106256 -1.942187 -1.761567 -0.708513 1.265223 2.169922 0.499984 0.000000 0.000000 0.000000 0.000000 0.000000 0.000000 -0.000000 0.000000 0.000000 -0.573934 0.739759 0.040084 23.666523 -2.254934 5.215826 -23.732405 5.884483 -3.620149 0.000000 0.000000 0.000000 0.000000 0.000000 0.000000 0.029578 -0.046970 43.943759 -0.000000 0.000000 0.000000 0.726071 0.564159 -0.308843 0.000000 0.000000 0.000000 0.029578 -0.046970 43.943759 -0.000000 0.000000 0.000000 -4.699071 -6.914498 -0.870382 0.000000 0.000000 0.000000
-50.522153 84.031657 334.063399 0.012623 0.104848 -43.679773 0.063281 -0.084545 43.679808 -0.000000 0.000000 0.000000 -0.000000 0.000000 0.000000 0.000000 0.000000 0.000000 -0.499881 -0.626280 0.293342 -0.938973 0.020022 -0.090232 -4.041546 -3.402821 -1.457533 2.418943 4.225490 0.996960 0.000000 0.000000 0.000000 0.000000 0.000000 0.000000 -0.000000 0.000000 0.000000 -1.060696 1.418892 0.083370 40.045069 -2.570078 9.338528 -40.117814 11.649600 -4.935679 0.000000 0.000000 0.000000 0.000000 0.000000 0.000000 0.063281 -0.084545 43.679808 -0.000000 0.000000 0.000000 0.959018 0.615656 -0.480033 0.000000 0.000000 0.000000 0.063281 -0.084545 43.679808 -0.000000 0.000000 0.000000 -10.293007 -14.645808 -2.622610 0.000000 0.000000 0.000000
-50.521541 84.034536 334.103475 0.003977 0.151506 -43.463483 0.101333 -0.112701 43.463577 -0.000000 0.000000 0.000000 -0.000000 0.000000 0.000000 0.000000 0.000000 0.000000 -0.715563 -0.892232 0.417284 -1.282574 0.032566 -0.136251 -6.206775 -4.822723 -2.208672 3.381940 6.057670 1.481915 0.000000 0.000000 0.000000 0.000000 0.000000 0.000000 -0.000000 0.000000 0.000000 -1.460172 2.037345 0.127529 50.064538 -2.281653 12.003581 -50.434361 16.458137 -4.998046 0.000000 0.000000 0.000000 0.000000 0.000000 0.000000 0.101333 -0.112701 43.463577 -0.000000 0.000000 0.000000 0.696229 0.155471 -0.510830 0.000000 0.000000 0.000000 0.101333 -0.112701 43.463577 -0.000000 0.000000 0.000000 -16.608422 -22.412774 -5.411537 0.000000 0.000000 0.000000
-50.518285 84.036099 334.138208 -0.014635 0.194318 -43.295898 0.143909 -0.131393 43.296088 -0.000000 0.000000 0.000000 -0.000000 0.000000 0.000000 0.000000 0.000000 0.000000 -0.908421 -1.126130 0.526371 -1.542063 0.045891 -0.184008 -8.318852 -5.907501 -2.902699 4.057335 7.536884 1.940945 0.000000 0.000000 0.000000 0.000000 0.000000 0.000000 -0.000000 0.000000 0.000000 -1.772305 2.595233 0.170514 56.114556 -1.972037 13.699002 -57.041647 20.454504 -4.543697 0.000000 0.000000 0.000000 0.000000 0.000000 0.000000 0.143909 -0.131393 43.296088 -0.633052 -0.674539 -0.053410 0.561579 -0.154600 -0.362196 0.000000 0.000000 0.000000 0.143909 -0.131393 43.296088 -0.000000 0.000000 0.000000 -23.148843 -29.227251 -9.043973 0.000000 0.000000 0.000000
-50.512385 84.036347 334.167597 -0.043206 0.233284 -43.177838 0.191136 -0.140553 43.178160 -0.000000 0.000000 0.000000 -0.000000 0.000000 0.000000 0.000000 0.000000 0.000000 -1.078447 -1.327573 0.620788 -1.717470 0.059349 -0.234182 -10.232184 -6.533023 -3.460322 4.332140 8.515253 2.349722 0.000000 0.000000 0.000000 0.000000 0.000000 0.000000 -0.000000 0.000000 0.000000 -1.997071 3.092776 0.210560 59.732591 -1.780766 14.789529 -61.391329 23.815221 -3.882149 0.000000 0.000000 0.000000 0.000000 0.000000 0.000000 -0.482368 0.281360 42.939827 -0.476291 -1.484482 0.170849 -0.673181 -1.652390 -0.125124 0.000000 0.000000 0.000000 0.191136 -0.140553 43.178160 -0.000000 0.000000 0.000000 -29.116055 -34.368982 -12.900437 0.000000 0.000000 0.000000
-50.505364 84.030332 334.192246 -0.086775 0.264422 -43.165578 0.244186 -0.133500 43.166063 -0.000000 0.000000 0.000000 -0.000000 0.000000 0.000000 0.000000 0.000000 0.000000 -1.293336 -1.519470 0.724481 -1.788799 -0.061524 -0.327044 -15.116372 -6.280565 -4.235578 4.844207 8.904301 3.047023 0.000000 0.000000 0.000000 0.000000 0.000000 0.000000 -0.000000 0.000000 0.000000 -2.173777 3.674859 0.258063 62.680497 -1.650984 15.783880 -65.678191 29.397650 -2.510797 0.000000 0.000000 0.000000 0.000000 0.000000 0.000000 -0.498998 0.307114 42.910893 -0.463609 -1.522721 0.176888 -5.105726 -7.070354 0.418194 0.000000 0.000000 0.000000 0.244186 -0.133500 43.166063 -0.000000 0.000000 0.000000 -33.126591 -37.259534 -15.910461 0.000000 0.000000 0.000000
-50.499592 84.028212 334.205631 -0.145822 0.292408 -43.183675 0.306435 -0.113420 43.184350 -0.000000 0.000000 0.000000 -0.000000 0.000000 0.000000 0.000000 0.000000 0.000000 -1.435359 -1.638612 0.790813 -1.590805 -0.070404 -0.425304 -17.548320 -4.861975 -4.130193 4.781466 7.271337 2.980466 0.000000 0.000000 0.000000 0.000000 0.000000 0.000000 -0.000000 0.000000 0.000000 -2.233801 4.161145 0.296886 63.381855 -1.794439 16.265858 -67.792036 32.290541 -1.470923 0.000000 0.000000 0.000000 0.000000 0.000000 0.000000 -0.452284 0.320455 42.928849 -0.412124 -1.427723 0.171550 -11.683011 -15.440040 0.091983 0.000000 0.000000 0.000000 0.306435 -0.113420 43.184350 -0.000000 0.000000 0.000000 -32.179096 -36.502319 -15.833115 0.000000 0.000000 0.000000
-50.484449 84.027867 334.219568 -0.209508 0.324585 -43.185274 0.374895 -0.093288 43.186173 -0.000000 0.000000 0.000000 -0.000000 0.000000 0.000000 0.000000 0.000000 0.000000 -1.479344 -1.731640 0.824485 -1.561599 0.016562 -0.455386 -14.853606 -3.791133 -3.433819 1.795796 6.322328 2.682360 0.000000 0.000000 0.000000 0.000000 0.000000 0.000000 -0.000000 0.000000 0.000000 -2.111278 4.445914 0.315397 62.754584 -2.030977 16.693850 -67.106945 30.137879 -2.126502 0.000000 0.000000 0.000000 0.000000 0.000000 0.000000 -0.402552 0.340026 42.928045 0.274169 -0.846768 0.261828 -13.186389 -16.584712 0.087224 0.000000 0.000000 0.000000 0.374895 -0.093288 43.186173 -0.000000 0.000000 0.000000 -38.248050 -40.228823 -20.605843 0.000000 0.000000 0.000000
-50.461819 84.028025 334.232383 -0.265879 0.348538 -43.211869 0.432422 -0.071973 43.212950 -0.000000 0.000000 0.000000 -0.000000 0.000000 0.000000 0.000000 0.000000 0.000000 -1.434620 -1.798479 0.828243 -1.540417 0.227723 -0.446883 -8.395681 -2.072090 -2.176712 -3.780500 4.104408 1.630464 0.000000 0.000000 0.000000 0.000000 0.000000 0.000000 0.166613 1.010454 0.103478 -2.151636 3.476387 0.173042 60.954504 -2.347109 17.205267 -64.048597 30.125747 -3.023535 0.000000 0.000000 0.000000 0.000000 0.000000 0.000000 -0.360059 0.337284 42.959693 0.301101 -0.839557 0.257297 -10.188421 -12.261449 0.896832 0.000000 0.000000 0.000000 0.432422 -0.071973 43.212950 -0.000000 0.000000 0.000000 -32.319237 -36.546178 -16.241084 0.000000 0.000000 0.000000
-50.434445 84.028872 334.243177 -0.312548 0.363558 -43.213466 0.476722 -0.050952 43.214670 -0.729393 0.349602 -0.051893 0.729723 -0.348913 0.056340 0.000000 0.000000 0.000000 -0.574061 -2.164135 0.845758 -1.534694 0.481141 -0.402919 -1.805869 -1.057151 -1.215068 -7.669722 2.541831 0.609078 0.000000 0.000000 0.000000 0.000000 0.000000 0.000000 0.884641 0.841186 0.168034 -1.988532 3.140777 0.146543 57.997669 -2.762824 16.126723 -61.794507 29.130357 -2.798717 0.000000 0.000000 0.000000 0.000000 0.000000 0.000000 -0.325549 0.311722 42.973861 0.339810 -0.812220 0.245043 -10.503659 -12.366816 1.097948 0.000000 0.000000 0.000000 0.476722 -0.050952 43.214670 -0.000000 0.000000 0.000000 -37.979051 -40.338887 -19.262660 0.000000 0.000000 0.000000
-50.399079 84.025803 334.249871 -0.350570 0.365151 -43.190286 0.505512 -0.026282 43.191519 -0.771851 0.341816 -0.054792 0.772191 -0.341046 0.059393 0.000000 0.000000 0.000000 -0.339247 -2.135760 0.793881 -1.352898 0.812916 -0.367301 2.497523 -0.763323 -0.603377 -7.539651 1.066437 -0.101873 0.000000 0.000000 0.000000 0.000000 0.000000 0.000000 0.933100 0.926277 0.177119 -1.730046 2.782063 0.116293 52.002283 -3.401270 13.177773 -55.973633 22.180232 -3.008980 0.000000 0.000000 0.000000 0.000000 0.000000 0.000000 -0.298816 0.265019 42.971867 0.389992 -0.761388 0.223919 -13.891362 -17.050981 0.318894 0.000000 0.000000 0.000000 0.505512 -0.026282 43.191519 -0.000000 0.000000 0.000000 -37.442557 -40.281754 -17.745537 0.000000 0.000000 0.000000
-50.357457 84.020398 334.249791 -0.364055 0.346985 -43.197022 0.502910 -0.003750 43.198141 -0.778515 0.301984 -0.055271 0.778817 -0.301205 0.059370 0.000000 0.000000 0.000000 -0.132648 -2.031515 0.726728 -1.128161 1.100006 -0.333268 4.289625 -0.780461 -0.275582 -6.454935 -0.042439 -0.428274 0.000000 0.000000 0.000000 0.000000 0.000000 0.000000 0.942732 0.920122 0.175205 -1.898827 2.781188 0.116566 49.639224 -3.727857 13.175417 -53.878461 20.102941 -3.609199 0.000000 0.000000 0.000000 0.000000 0.000000 0.000000 -0.286093 0.189034 43.010370 0.445470 -0.679158 0.191687 -13.596508 -17.160650 -0.041860 0.000000 0.000000 0.000000 0.502910 -0.003750 43.198141 -0.000000 0.000000 0.000000 -26.589779 -32.513764 -9.323006 0.000000 0.000000 0.000000
